
<svg width="140px" height="46px" viewBox="0 0 140 46" version="1.1" xmlns="http://www.w3.org/2000/svg" xmlns:xlink="http://www.w3.org/1999/xlink">
    <!-- Generator: Sketch 49.3 (51167) - http://www.bohemiancoding.com/sketch -->
    <desc>Created with Sketch.</desc>
    <defs>
        <polygon id="path-1" points="5.67375887e-06 0.0223708207 45.6510695 0.0223708207 45.6510695 45.0212766 5.67375887e-06 45.0212766"></polygon>
        <linearGradient x1="97.6178649%" y1="50%" x2="6.93044686%" y2="50%" id="linearGradient-3">
            <stop stop-color="#FF2D55" offset="0%"></stop>
            <stop stop-color="#FF4500" offset="100%"></stop>
        </linearGradient>
        <polygon id="path-4" points="0.0226637724 0.0397519665 9.90640758 0.0397519665 9.90640758 21.5244682 0.0226637724 21.5244682"></polygon>
    </defs>
    <g id="Page-1" stroke="none" stroke-width="1" fill="none" fill-rule="evenodd">
        <g id="Reddit---Popular" transform="translate(-20.000000, -14.000000)">
            <g id="Page-1" transform="translate(20.000000, 14.000000)">
                <g id="Group-3">
                    <mask id="mask-2" fill="white">
                        <use xlink:href="#path-1"></use>
                    </mask>
                    <g id="Clip-2"></g>
                    <path d="M22.8255376,0.0223596353 C35.431722,0.0223596353 45.6510695,10.0957165 45.6510695,22.5218125 C45.6510695,34.9479086 35.431722,45.0213213 22.8255376,45.0213213 C10.2193532,45.0213213 5.67375887e-06,34.9479086 5.67375887e-06,22.5218125 C5.67375887e-06,10.0957165 10.2193532,0.0223596353 22.8255376,0.0223596353" id="Fill-1" fill="url(#linearGradient-3)" mask="url(#mask-2)"></path>
                </g>
                <path d="M27.9574765,26.7694659 C26.7234053,26.7694659 25.7172482,25.7654827 25.7172482,24.534078 C25.7172482,23.3026732 26.7234053,22.29869 27.9574765,22.29869 C29.1915477,22.29869 30.1977048,23.3026732 30.1977048,24.534078 C30.2477347,25.7654827 29.2860486,26.8028026 28.0519774,26.8526689 L27.9407998,26.8526689 L27.9574765,26.7694659 Z M28.3577158,30.5912582 C26.7678763,31.7838349 24.8222686,32.3939905 22.8321898,32.3107874 C20.8421111,32.3939905 18.8965034,31.7838349 17.3066639,30.5912582 C17.0954265,30.3361578 17.1343386,29.9533684 17.3900471,29.7426428 C17.6124023,29.5595962 17.9292584,29.5595962 18.1571724,29.7426428 C19.5024212,30.7244386 21.1422906,31.2236567 22.8099543,31.1459451 C24.4776181,31.234695 26.1230463,30.7576643 27.4849717,29.7869623 C27.7295624,29.5485025 28.1298017,29.5539939 28.3688335,29.7981115 C28.6078653,30.0421183 28.6023065,30.4414928 28.3577158,30.6800081 L28.3577158,30.5912582 Z M15.3666151,24.4564773 C15.3666151,23.2250725 16.3727722,22.2210338 17.6068434,22.2210338 C18.8409146,22.2210338 19.8470717,23.2250725 19.8470717,24.4564773 C19.8470717,25.6878266 18.8409146,26.6918652 17.6068434,26.6918652 C16.3672133,26.680716 15.3666151,25.6878266 15.3666151,24.4564773 Z M37.7299861,22.2210338 C37.6632796,20.4239039 36.1512644,19.0204908 34.3446287,19.0815063 C33.5441501,19.1092407 32.7825836,19.4365059 32.2044602,19.9856459 C29.6584935,18.2550229 26.6678165,17.3065084 23.5937563,17.239946 L25.0446238,10.2786262 L29.8308188,11.2826094 C29.9642319,12.5084673 31.06489,13.3959662 32.2934023,13.2628414 C33.5219146,13.129772 34.4113352,12.0314366 34.2779221,10.8055787 C34.144509,9.57977624 33.043851,8.6922773 31.8153386,8.82534667 C31.109361,8.89745596 30.4756488,9.30792422 30.1254394,9.91807974 L24.6443845,8.82534667 C24.2719396,8.74214364 23.8994946,8.97511211 23.8161115,9.35229917 L23.8161115,9.3633929 L22.1651243,17.1068212 C19.052152,17.156743 16.0225628,18.1108044 13.4432428,19.852521 C12.1313474,18.6211717 10.0634443,18.6821318 8.8293731,19.9967396 C7.59530191,21.3058006 7.65644959,23.3692356 8.97390396,24.6006404 C9.2296124,24.8391557 9.524233,25.0443898 9.85220687,25.1886084 C9.82997136,25.5158737 9.82997136,25.8431944 9.85220687,26.1704041 C9.85220687,31.168188 15.68903,35.2340426 22.8877786,35.2340426 C30.0865272,35.2340426 35.9233504,31.1736794 35.9233504,26.1704041 C35.9455859,25.8431944 35.9455859,25.5158737 35.9233504,25.1886084 C37.046244,24.6283747 37.7522216,23.4746816 37.7299861,22.2210338 Z" id="Fill-4" fill="#FFFFFF"></path>
                <path d="M126.099291,9.78723404 C127.744438,9.78723404 129.078014,11.1018132 129.078014,12.7234043 C129.078014,14.3449953 127.744438,15.6595745 126.099291,15.6595745 C124.454198,15.6595745 123.120567,14.3449953 123.120567,12.7234043 C123.120567,11.1018132 124.454198,9.78723404 126.099291,9.78723404" id="Fill-6" fill="#FF4500"></path>
                <path d="M76.9820504,19.1581398 C79.223805,19.3050909 81.1083196,20.8763367 81.6096889,23.0297347 L72.3659952,23.0297347 C72.8616016,20.8706847 74.7345329,19.2994389 76.9820504,19.1581398 Z M83.0100652,26.1270107 C84.2317926,26.2117901 85.2921022,25.307476 85.3843657,24.1036078 C85.3900709,24.0357842 85.3900709,23.9566567 85.3900709,23.8831812 C85.37284,23.4649359 85.3209165,23.0410387 85.2344736,22.6284453 C84.4853011,18.7059827 81.0679219,15.8178294 77.0051018,15.6595745 C72.3775786,15.6595745 68.5106383,19.8307235 68.5106383,24.9514023 C68.5106383,30.0720811 72.3141294,34.2488821 76.9993966,34.2488821 C79.4831339,34.3449655 81.8920117,33.3615239 83.5632426,31.5585475 C84.2490812,30.8237923 84.1914526,29.6877476 83.4422801,29.015164 C83.3846514,28.9642963 83.332728,28.9190806 83.2750993,28.8795169 C82.5259268,28.4217078 81.5520602,28.5177912 80.918145,29.1168993 C79.8750088,30.1342527 78.4746325,30.716405 76.9993966,30.7616207 C74.4522101,30.563802 72.4120981,28.6082226 72.1585897,26.1044028 L82.9408531,26.1044028 L83.0100652,26.1270107 Z" id="Fill-8" fill="#000000"></path>
                <path d="M68.5106383,17.405412 C68.5106383,16.566007 67.8846711,15.8519677 67.0445571,15.7484047 C64.7767986,15.3723076 62.4706035,16.206262 60.9825586,17.9504802 L60.9825586,17.732453 C60.9825586,16.8003863 60.2248088,16.0481922 59.285858,16.0481922 C58.3469071,16.0481922 57.5891573,16.8003863 57.5891573,17.732453 L57.5891573,31.5226785 C57.5671935,32.4274917 58.264543,33.1960379 59.1760391,33.2723475 C60.1040081,33.3377556 60.9166673,32.6400683 60.9770677,31.7189031 C60.9825586,31.6534949 60.9825586,31.5880867 60.9770677,31.5226785 L60.9770677,24.4476932 C60.8288672,21.6242399 63.0087157,19.2204892 65.8530779,19.0678701 C66.1056063,19.051518 66.3636805,19.0569687 66.6162638,19.0842221 L66.9567021,19.0842221 C67.8352526,19.0079126 68.5106383,18.2829718 68.5106383,17.405412" id="Fill-10" fill="#000000"></path>
                <path d="M127.092199,19.3000851 C127.092199,18.3686809 126.427036,17.6170213 125.602861,17.6170213 C124.77859,17.6170213 124.113475,18.3686809 124.113475,19.3000851 L124.113475,31.5935319 C124.113475,32.5249362 124.778638,33.2765957 125.602861,33.2765957 C126.427084,33.2765957 127.092199,32.5249362 127.092199,31.5935319 L127.092199,19.3000851 Z" id="Fill-12" fill="#000000"></path>
                <path d="M94.5056066,30.8001689 C91.8954951,30.8001689 89.7710306,28.192475 89.7710306,24.9669277 C89.7710306,21.7412671 91.8789408,19.1335733 94.5056066,19.1335733 C97.1322173,19.1335733 99.2401275,21.7412671 99.2401275,24.9669277 C99.2401275,28.192475 97.1322173,30.7718244 94.5165876,30.7718244 L94.5056066,30.8001689 Z M102.269504,9.57586503 C102.269504,8.61215208 101.508007,7.82978723 100.569932,7.82978723 C99.6318567,7.82978723 98.8704155,8.61215208 98.8704155,9.57586503 L98.8704155,17.3989466 C97.7226529,16.2084777 96.1444241,15.5621664 94.5165876,15.6075176 C90.0855617,15.6075176 86.3829787,19.7911656 86.3829787,24.9271888 C86.3829787,30.0632119 90.0303808,34.2525288 94.5165876,34.2525288 C96.1720145,34.3036056 97.7722605,33.6516821 98.9476688,32.4441498 C99.2125371,33.3682371 100.156075,33.8954448 101.055524,33.6233376 C101.734304,33.4192005 102.219896,32.8069594 102.264041,32.0756713 L102.269504,9.57586503 Z" id="Fill-14" fill="#000000"></path>
                <path d="M112.383437,30.8001689 C109.77339,30.8001689 107.648932,28.192475 107.648932,24.9669277 C107.648932,21.7412671 109.75678,19.1335733 112.383437,19.1335733 C115.010038,19.1335733 117.117941,21.7412671 117.117941,24.9669277 C117.117941,28.192475 115.010038,30.7718244 112.394473,30.7718244 L112.383437,30.8001689 Z M120.141844,9.57586503 C120.141844,8.61215208 119.38035,7.82978723 118.442278,7.82978723 C117.504206,7.82978723 116.742713,8.61215208 116.742713,9.57586503 L116.742713,17.3989466 C115.594954,16.2084777 114.016786,15.5621664 112.388955,15.6075176 C107.957944,15.6075176 104.255319,19.7911656 104.255319,24.9271888 C104.255319,30.0632119 107.902764,34.2525288 112.388955,34.2525288 C114.044376,34.3036056 115.644617,33.6516821 116.81991,32.4441498 C117.084833,33.3682371 118.028423,33.8954448 118.927868,33.6233376 C119.606536,33.4192005 120.092181,32.8069594 120.136271,32.0756713 L120.141844,9.57586503 Z" id="Fill-16" fill="#000000"></path>
                <g id="Group-20" transform="translate(130.070922, 11.744681)">
                    <mask id="mask-5" fill="white">
                        <use xlink:href="#path-4"></use>
                    </mask>
                    <g id="Clip-19"></g>
                    <path d="M6.73800435,19.8192631 L6.73800435,7.21951339 L8.27041118,7.21951339 C9.1198352,7.26907534 9.84299348,6.6467975 9.89464764,5.83728561 C9.89464764,5.80975119 9.900387,5.77670989 9.900387,5.74366859 C9.97494117,4.9341567 9.34940926,4.21826183 8.51140655,4.14667234 C8.46554913,4.14116546 8.41389497,4.14116546 8.36792276,4.14116546 L6.7437437,4.14116546 L6.7437437,1.80073992 C6.7552224,0.89210413 6.03206412,0.126647309 5.08507113,0.0440440551 C4.11512073,-0.0220385482 3.27143607,0.682842553 3.20250646,1.61350588 C3.1968245,1.65205407 3.1968245,1.69610914 3.1968245,1.73465732 L3.1968245,4.17971364 L1.65867831,4.17971364 C0.809254294,4.13015169 0.0860960112,4.75242954 0.0344418481,5.56194143 C0.0344418481,5.58947584 0.0287024966,5.62251715 0.0287024966,5.65555845 C-0.0459090723,6.46507034 0.579680236,7.18096521 1.41762555,7.25255469 C1.46354036,7.25806158 1.51513713,7.25806158 1.56110933,7.25806158 L3.09345878,7.25806158 L3.09345878,19.824825 C3.09345878,20.7609952 3.88554667,21.5208901 4.86123642,21.5208901 C5.83692617,21.5814658 6.66913213,20.865571 6.7322076,19.9294008 C6.73800435,19.8963594 6.73800435,19.8578113 6.73800435,19.8192631" id="Fill-18" fill="#000000" mask="url(#mask-5)"></path>
                </g>
            </g>
        </g>
    </g>
</svg>